<?xml version="1.0" encoding="utf-8"?>
<!-- Generator: Adobe Illustrator 28.1.0, SVG Export Plug-In . SVG Version: 6.00 Build 0)  -->
<svg version="1.1" id="Layer_1" xmlns="http://www.w3.org/2000/svg" xmlns:xlink="http://www.w3.org/1999/xlink" x="0px" y="0px"
	 viewBox="0 0 850.39 974.27" style="enable-background:new 0 0 850.39 974.27;" xml:space="preserve">
<style type="text/css">
	.st0{fill:#BCBDC0;}
	
		.st1{clip-path:url(#SVGID_00000140709621502787556950000008268602334596086407_);fill-rule:evenodd;clip-rule:evenodd;fill:#007991;}
	.st2{fill:#FDDAB5;}
	.st3{clip-path:url(#SVGID_00000008118750287508273760000005180941776837819028_);fill:#010101;fill-opacity:0.1;}
	.st4{clip-path:url(#SVGID_00000041270226415078203610000011526196153865550514_);}
	.st5{opacity:0.75;fill-rule:evenodd;clip-rule:evenodd;fill:#010101;fill-opacity:0.1;enable-background:new    ;}
	.st6{fill:#1A2321;}
	.st7{fill-rule:evenodd;clip-rule:evenodd;fill:#321F1A;}
	.st8{fill-rule:evenodd;clip-rule:evenodd;fill:#010101;fill-opacity:0.7;}
	
		.st9{clip-path:url(#path-9_00000021832796541825582130000013962320076806190239_);fill-rule:evenodd;clip-rule:evenodd;fill:#FFFFFF;}
	.st10{clip-path:url(#path-9_00000021832796541825582130000013962320076806190239_);}
	.st11{fill-rule:evenodd;clip-rule:evenodd;fill:#EA506F;}
</style>
<circle class="st0" cx="425.2" cy="549.07" r="425.2"/>
<g id="Layer_1_00000149346868902290704020000004387392502867204773_">
</g>
<g id="Layer_2_00000064329237493737232280000017760712497409749390_">
	<g>
		<g>
			<defs>
				<circle id="SVGID_1_" cx="425.2" cy="549.07" r="425.2"/>
			</defs>
			<clipPath id="SVGID_00000150094630000219699740000005189750558671701434_">
				<use xlink:href="#SVGID_1_"  style="overflow:visible;"/>
			</clipPath>
			
				<ellipse style="clip-path:url(#SVGID_00000150094630000219699740000005189750558671701434_);fill-rule:evenodd;clip-rule:evenodd;fill:#007991;" cx="424.48" cy="855.94" rx="339.54" ry="227.45"/>
		</g>
	</g>
	<path class="st2" d="M420.98,748.6L420.98,748.6c-52.69,0-95.4-42.71-95.4-95.4V542.17h190.8V653.2
		C516.38,705.89,473.67,748.6,420.98,748.6z"/>
	<path class="st2" d="M616.44,275.22c0.66-6.28,6.8-10.31,12.3-13.41c4.92-2.77,10.68-5.63,15.96-3.63
		c5.48,2.07,7.88,8.39,9.2,14.09c4.78,20.61,3.79,42.16,0.76,63.1c-1.68,11.6-4.04,23.31-9.62,33.61s-14.83,19.13-26.25,21.77"/>
	<path class="st2" d="M221.78,275.22c-0.66-6.28-6.8-10.31-12.3-13.41c-4.92-2.77-10.68-5.63-15.96-3.63
		c-5.48,2.07-7.88,8.39-9.2,14.09c-4.78,20.61-3.79,42.16-0.76,63.1c1.68,11.6,4.04,23.31,9.62,33.61s14.83,19.13,26.25,21.77"/>
	<g>
		<g>
			<defs>
				<path id="SVGID_00000093178230561301872320000015618648536286506376_" d="M420.98,748.6L420.98,748.6
					c-52.69,0-95.4-42.71-95.4-95.4V542.17h190.8V653.2C516.38,705.89,473.67,748.6,420.98,748.6z"/>
			</defs>
			<clipPath id="SVGID_00000172407155518234737800000000048018088940289416_">
				<use xlink:href="#SVGID_00000093178230561301872320000015618648536286506376_"  style="overflow:visible;"/>
			</clipPath>
			<path style="clip-path:url(#SVGID_00000172407155518234737800000000048018088940289416_);fill:#010101;fill-opacity:0.1;" d="
				M631.79,199.36V460.2c0,0-9.11,39.96-26.35,61.78l-53.61,54.51c0,0-26.74-6.64-33.07,3.37c-6.37,9.97-45.99,58.41-96.86,58.41
				s-91.98-50.16-98.36-60.13c-6.33-10.01-31.58-1.65-31.58-1.65l-53.61-54.51C221.11,500.17,212,460.21,212,460.21l2.09-244.26
				l111.49-99.16l96.31,16.31l112.22,1.3L631.79,199.36z"/>
		</g>
	</g>
	<path class="st2" d="M631.79,174.31c0,7.54,0,15.08,0,22.62c0,18.45,0,36.91,0,55.36c0,23.16,0,46.32,0,69.49c0,21.67,0,43.33,0,65
		c0,13.96-0.26,27.94,0,41.89c0.08,4.24-0.34,8.05-1.43,12.17c-4.73,17.83-10.89,35.28-21.05,50.8c-5.33,8.14-13.37,15-20.17,21.97
		c-7.31,7.5-14.69,14.92-22.14,22.27c-9.09,8.96-18.5,17.86-28.73,25.53c-9.08,7.71-16.77,17.35-26.68,24.02
		c-12.05,8.1-25.47,14.32-39.19,18.99c-16.23,5.52-33.33,8.8-50.5,8.8c-18.19,0-36.36-3.43-53.46-9.55
		c-16.33-5.83-32.04-13.7-44.89-25.54c-4.82-4.44-9.22-9.31-13.97-13.82c-4.92-4.66-10.57-8.2-15.76-12.5
		c-11.8-9.78-22.77-20.53-33.39-31.57c-12.1-12.59-24.71-24.59-32.57-40.36c-3.98-7.98-7.27-16.3-9.95-24.78
		c-2.78-8.79-6.1-16.69-5.84-26.06c0.07-2.46,0.04-4.92,0.06-7.37c0.06-7.28,0.12-14.56,0.19-21.83c0.18-20.83,0.36-41.67,0.54-62.5
		c0.2-23.28,0.4-46.56,0.6-69.84c0.16-18.62,0.32-37.25,0.48-55.87c0.06-6.91,0.12-13.82,0.18-20.73l111.49-99.16l96.31,16.31
		l112.22,1.3C534.12,109.33,631.79,174.31,631.79,174.31z"/>
	<g>
		<g>
			<defs>
				<path id="SVGID_00000007422856266208763400000009738855328300114818_" d="M631.79,174.31c0,7.54,0,15.08,0,22.62
					c0,18.45,0,36.91,0,55.36c0,23.16,0,46.32,0,69.49c0,21.67,0,43.33,0,65c0,13.96-0.26,27.94,0,41.89
					c0.08,4.24-0.34,8.05-1.43,12.17c-4.73,17.83-10.89,35.28-21.05,50.8c-5.33,8.14-13.37,15-20.17,21.97
					c-7.31,7.5-14.69,14.92-22.14,22.27c-9.09,8.96-18.5,17.86-28.73,25.53c-9.08,7.71-16.77,17.35-26.68,24.02
					c-12.05,8.1-25.47,14.32-39.19,18.99c-16.23,5.52-33.33,8.8-50.5,8.8c-18.19,0-36.36-3.43-53.46-9.55
					c-16.33-5.83-32.04-13.7-44.89-25.54c-4.82-4.44-9.22-9.31-13.97-13.82c-4.92-4.66-10.57-8.2-15.76-12.5
					c-11.8-9.78-22.77-20.53-33.39-31.57c-12.1-12.59-24.71-24.59-32.57-40.36c-3.98-7.98-7.27-16.3-9.95-24.78
					c-2.78-8.79-6.1-16.69-5.84-26.06c0.07-2.46,0.04-4.92,0.06-7.37c0.06-7.28,0.12-14.56,0.19-21.83
					c0.18-20.83,0.36-41.67,0.54-62.5c0.2-23.28,0.4-46.56,0.6-69.84c0.16-18.62,0.32-37.25,0.48-55.87
					c0.06-6.91,0.12-13.82,0.18-20.73l111.49-99.16l96.31,16.31l112.22,1.3C534.12,109.33,631.79,174.31,631.79,174.31z"/>
			</defs>
			<clipPath id="SVGID_00000128445504132479566440000011273345846852648351_">
				<use xlink:href="#SVGID_00000007422856266208763400000009738855328300114818_"  style="overflow:visible;"/>
			</clipPath>
			<g style="clip-path:url(#SVGID_00000128445504132479566440000011273345846852648351_);">
				<path class="st5" d="M655.64,261.82v176.19l-32.34,190.5H218.65l-32.34-190.5V261.82l40.78,14.04l8.86,84.63
					c1.57,14.99,9.68,28.51,22.18,36.94c29.27,19.74,80.99,54.52,82.7,54.97c2.39,0.59,80.16,0,80.16,0s77.73,0.59,80.12,0
					c1.75-0.45,54.15-35.69,83.31-55.35c12.16-8.2,20.2-21.24,22.06-35.79l11.46-89.53L655.64,261.82z"/>
			</g>
		</g>
	</g>
	<g>
		<path class="st6" d="M290.4,327.77c11.43-13.22,27.57-22.98,45.2-24.69c5.52-0.55,11.24-0.2,16.69,0.98
			c3.65,0.84,7.27,1.92,10.68,3.46c1.79,0.9,3.17,2.29,3.95,4.27c1.49,3.97-0.76,8.44-4.83,9.61c-3.08,1.14-5.26,0.4-7.62-1
			c-2.53-1.23-5.15-2.26-7.87-2.99c-6.19-1.7-12.63-2.04-19.24-1.06c-9.11,1.29-17.87,4.85-25.89,9.41
			c-2.73,1.57-5.54,3.34-8.04,5.2C291.37,332.51,288.74,329.77,290.4,327.77L290.4,327.77z"/>
	</g>
	<g>
		<path class="st6" d="M544.7,330.9c-10-7.15-21.64-12.76-33.84-14.55c-6.61-0.98-13.05-0.64-19.24,1.06
			c-2.72,0.72-5.34,1.76-7.87,2.99c-2.35,1.39-4.55,2.14-7.61,1c-5.29-1.41-7.1-8.47-3.17-12.21c2-2.07,4.9-2.71,7.53-3.65
			c3.54-1.17,7.27-1.96,10.98-2.38c14.45-1.71,29.05,2.97,40.94,10.98c4.3,2.89,8.27,6.14,11.91,9.79c1.21,1.24,2.33,2.44,3.49,3.84
			c0.78,0.94,0.66,2.34-0.29,3.12C546.7,331.59,545.51,331.56,544.7,330.9L544.7,330.9z"/>
	</g>
	<path class="st7" d="M264.54,289.03l38.31-31.61c3.15-2.6,6.99-4.2,11.04-4.63l59.81-6.21c6.12-0.64,11.49,4.07,11.66,10.22l0,0
		c0.15,5.48-3.91,10.17-9.36,10.79l-50.1,5.76c-8.64,0.99-17.1,3.22-25.12,6.61l-33.23,14.05
		C264.43,295.34,261.92,291.19,264.54,289.03z"/>
	<path class="st7" d="M573.73,288.28l-38.56-31.06c-3.17-2.55-7.01-4.11-11.06-4.48l-59.68-5.49c-6.11-0.56-11.4,4.19-11.5,10.32
		l0,0c-0.09,5.46,4.02,10.09,9.45,10.65l50,5.15c8.63,0.89,17.08,3.01,25.11,6.29l33.28,13.62
		C573.91,294.57,576.36,290.4,573.73,288.28z"/>
	<g>
		<path class="st6" d="M452.63,403.38c1.68,7.74-2.11,16.13-7.97,21.32c-14.87,13.82-43.02,9.72-50.86-9.78
			c-1.45-3.72-1.92-7.81-1.11-11.54c0.22-1.03,1.24-1.69,2.27-1.47c0.73,0.16,1.28,0.72,1.45,1.4c3.04,12.14,14.63,18.44,26.25,18.5
			c11.6-0.06,23.16-6.32,26.24-18.43C449.31,401.39,452.23,401.4,452.63,403.38L452.63,403.38z"/>
	</g>
	<g id="Mouth_x2F_Smile_00000013165579398059683880000016628232150183301024_" transform="translate(1.800000, 46.800000)">
		<g id="Mouth_00000040561302725924436560000000180007193562122631_">
			<path id="path-9_00000049181111287976984770000004196125902711022247_" class="st8" d="M354.47,444.94
				c3.72,33.4,32.05,59.37,66.45,59.37c34.5,0,62.9-26.13,66.48-59.68c0.29-2.7-2.73-7.18-6.51-7.18c-52.41,0-92.57,0-119.49,0
				C357.6,437.46,354.1,441.6,354.47,444.94z"/>
		</g>
	</g>
	<path id="path-13_00000155112680641365279140000004380507384333824941_" class="st7" d="M595.58,80.66
		c-10.02-9.92-21.64-18.35-32.95-26.79c-2.5-1.86-5.03-3.68-7.47-5.61c-0.55-0.44-6.24-4.39-6.92-5.84
		c-1.64-3.49-0.69-0.77-0.46-4.94c0.29-5.27,11.37-20.16,3.1-23.58c-3.64-1.5-10.13,2.49-13.62,3.81
		c-6.83,2.58-13.74,4.79-20.8,6.69c3.38-6.53,9.83-19.61-2.29-16.11c-9.44,2.73-18.24,9.74-27.73,13.04
		c3.14-4.99,15.69-20.45,4.35-21.32c-3.53-0.27-13.8,6.15-17.6,7.52c-11.38,4.1-23.01,6.75-34.96,8.84
		c-40.64,7.1-88.16,5.08-125.76,23.02c-28.99,13.83-57.61,35.29-74.35,62.62c-16.14,26.34-22.18,55.17-25.55,85.35
		c-2.48,22.15-2.68,45.05-1.52,67.28c0.38,7.28,1.22,40.86,12.14,30.69c5.44-5.07,5.4-25.52,6.77-32.45
		c2.72-13.78,5.35-27.62,9.89-40.95c8.01-23.5,17.45-34.46,37.4-50.65c12.8-10.39,21.79-24.43,34.04-34.9
		c5.5-4.71,1.3-4.22,10.15-3.6c5.94,0.41,11.91,0.57,17.87,0.72c13.78,0.35,27.57,0.26,41.35,0.31c27.75,0.1,55.37,0.48,83.09-0.93
		c12.32-0.63,24.67-0.96,36.96-2.07c6.86-0.62,19.04-4.88,24.69-1.62c5.17,2.98,10.54,12.72,14.25,16.71
		c8.77,9.43,19.23,16.62,29.49,24.35c21.39,16.12,32.19,22.28,38.69,47.46c6.47,25.09,4.66,48.37,12.67,73.06
		c1.41,4.34,5.14,11.82,9.73,5.12c0.85-1.25,1.57-7.96,1.57-11.9c0-15.91,3.22-27.97,3.17-43.98
		C634.75,181.33,633.13,117.86,595.58,80.66z"/>
</g>
<g>
	<defs>
		<path id="path-9_00000088815060542172041020000017035442500046506943_" d="M356.27,491.74c3.72,33.4,32.05,59.37,66.45,59.37
			c34.5,0,62.9-26.13,66.48-59.68c0.29-2.7-2.73-7.18-6.51-7.18c-52.41,0-92.57,0-119.49,0C359.4,484.26,355.9,488.4,356.27,491.74z
			"/>
	</defs>
	<clipPath id="path-9_00000180358695302631693730000010594312332338749324_">
		<use xlink:href="#path_x002D_9_00000088815060542172041020000017035442500046506943_"  style="overflow:visible;"/>
	</clipPath>
	
		<path id="Teeth_00000110462354657796642250000016256202410423126425_" style="clip-path:url(#path-9_00000180358695302631693730000010594312332338749324_);fill-rule:evenodd;clip-rule:evenodd;fill:#FFFFFF;" d="
		M387.53,445.55h73.9c9.72,0,17.6,7.88,17.6,17.6v21.11c0,9.72-7.88,17.6-17.6,17.6h-73.9c-9.72,0-17.6-7.88-17.6-17.6v-21.11
		C369.93,453.42,377.81,445.55,387.53,445.55z"/>
	
		<g id="Tongue_00000005233465455186641170000006143588128009564315_" style="clip-path:url(#path-9_00000180358695302631693730000010594312332338749324_);">
		<g transform="translate(34.200000, 21.600000)">
			<circle class="st11" cx="370.92" cy="540.08" r="38.71"/>
			<circle class="st11" cx="406.11" cy="540.08" r="38.71"/>
		</g>
	</g>
</g>
</svg>
